<?xml version="1.0" encoding="utf-8"?>
<!-- Generator: Adobe Illustrator 24.3.0, SVG Export Plug-In . SVG Version: 6.00 Build 0)  -->
<svg version="1.1" id="Calque_1" xmlns="http://www.w3.org/2000/svg" xmlns:xlink="http://www.w3.org/1999/xlink" x="0px" y="0px"
	 viewBox="0 0 90 89.1" style="enable-background:new 0 0 90 89.1;" xml:space="preserve">
<style type="text/css">
	.st0{fill:none;}
</style>
<g>
	<g>
		<path class="st0" d="M61.2,45.6C61.2,45.6,61.2,45.6,61.2,45.6c-0.1-0.1-0.1-0.2-0.2-0.3c0-0.1-0.1-0.1-0.1-0.2
			c-0.1-0.1-0.1-0.3-0.1-0.4c0-0.1,0-0.1,0-0.2c0-0.1,0-0.3,0.1-0.4c0,0,0-0.1,0-0.1c0.1-0.1,0.1-0.3,0.2-0.4c0,0,0-0.1,0.1-0.1
			c0,0,0,0,0,0c0,0,0,0,0,0l25.2-24.9L71.4,3.5L46,28.5c-0.1,0.1-0.2,0.1-0.3,0.2c-0.1,0-0.1,0.1-0.2,0.1c-0.1,0-0.2,0.1-0.3,0.1
			c-0.1,0-0.1,0-0.2,0c-0.1,0-0.2,0-0.3-0.1c-0.1,0-0.2,0-0.2,0c-0.1,0-0.2-0.1-0.3-0.2c-0.1,0-0.2-0.1-0.2-0.1l0,0c0,0,0,0,0,0
			c0,0,0,0,0,0l-25.3-25L3.5,18.6l25.2,24.9c0,0,0,0,0,0s0,0,0,0c0.1,0.1,0.1,0.2,0.2,0.3c0,0.1,0.1,0.1,0.1,0.2
			c0.1,0.1,0.1,0.3,0.1,0.4c0,0,0,0.1,0,0.1c0,0.2,0,0.3-0.1,0.5c0,0,0,0,0,0c-0.1,0.2-0.2,0.3-0.3,0.5c0,0,0,0,0,0c0,0,0,0,0,0
			c0,0,0,0,0,0L3.5,70.5l15.1,15.1l25.3-25c0,0,0,0,0,0c0,0,0,0,0,0l0,0c0,0,0.1,0,0.1-0.1c0.1-0.1,0.2-0.2,0.4-0.3c0,0,0.1,0,0.1,0
			c0.1,0,0.3-0.1,0.4-0.1c0,0,0,0,0.1,0c0.2,0,0.3,0,0.5,0.1c0,0,0,0,0.1,0c0.1,0.1,0.3,0.2,0.4,0.3l25.4,25l15.1-15.1L61.2,45.6
			C61.3,45.6,61.3,45.6,61.2,45.6z"/>
		<path d="M64.3,44.5l25.2-24.9c0.3-0.3,0.4-0.6,0.4-1s-0.2-0.8-0.4-1L72.4,0.4c-0.6-0.6-1.5-0.6-2,0L45,25.5l-25.4-25
			c-0.6-0.6-1.5-0.6-2,0L0.4,17.6c-0.3,0.3-0.4,0.6-0.4,1s0.2,0.8,0.4,1l25.2,24.9L0.4,69.4c-0.3,0.3-0.4,0.6-0.4,1
			c0,0.4,0.2,0.8,0.4,1l17.2,17.1c0.3,0.3,0.7,0.4,1,0.4c0.4,0,0.7-0.1,1-0.4l25.4-25l25.4,25c0.3,0.3,0.7,0.4,1,0.4
			c0.4,0,0.7-0.1,1-0.4l17.2-17.1c0.3-0.3,0.4-0.6,0.4-1s-0.2-0.8-0.4-1L64.3,44.5z M71.4,85.6L46,60.5c-0.1-0.1-0.3-0.2-0.4-0.3
			c0,0,0,0-0.1,0c-0.2-0.1-0.3-0.1-0.5-0.1c0,0,0,0-0.1,0c-0.1,0-0.3,0-0.4,0.1c0,0-0.1,0-0.1,0c-0.1,0.1-0.3,0.2-0.4,0.3
			c0,0-0.1,0-0.1,0.1l0,0c0,0,0,0,0,0c0,0,0,0,0,0l-25.3,25L3.5,70.5l25.2-24.9c0,0,0,0,0,0c0,0,0,0,0,0c0,0,0,0,0,0
			c0.1-0.1,0.2-0.3,0.3-0.5c0,0,0,0,0,0c0.1-0.2,0.1-0.3,0.1-0.5c0,0,0-0.1,0-0.1c0-0.2,0-0.3-0.1-0.4c0-0.1-0.1-0.1-0.1-0.2
			c-0.1-0.1-0.1-0.2-0.2-0.3c0,0,0,0,0,0s0,0,0,0L3.5,18.6L18.6,3.5l25.4,25c0,0,0,0,0,0c0,0,0,0,0,0l0,0c0.1,0.1,0.1,0.1,0.2,0.1
			c0.1,0.1,0.2,0.1,0.3,0.2c0.1,0,0.2,0,0.2,0c0.1,0,0.2,0.1,0.3,0.1c0.1,0,0.1,0,0.2,0c0.1,0,0.2,0,0.3-0.1c0.1,0,0.1-0.1,0.2-0.1
			c0.1-0.1,0.2-0.1,0.3-0.2l25.4-25l15.1,15.1L61.3,43.5c0,0,0,0,0,0c0,0,0,0,0,0c0,0,0,0.1-0.1,0.1c-0.1,0.1-0.2,0.2-0.2,0.4
			c0,0,0,0.1,0,0.1c0,0.1-0.1,0.3-0.1,0.4c0,0.1,0,0.1,0,0.2c0,0.1,0,0.3,0.1,0.4c0,0.1,0.1,0.1,0.1,0.2c0.1,0.1,0.1,0.2,0.2,0.3
			c0,0,0,0,0,0s0,0,0,0l25.2,24.9L71.4,85.6z"/>
	</g>
</g>
</svg>
