<?xml version="1.0" encoding="utf-8"?>
<!-- Generator: Adobe Illustrator 25.0.1, SVG Export Plug-In . SVG Version: 6.00 Build 0)  -->
<svg version="1.1" id="Capa_1" xmlns="http://www.w3.org/2000/svg" xmlns:xlink="http://www.w3.org/1999/xlink" x="0px" y="0px"
	 viewBox="0 0 235.6 235.6" style="enable-background:new 0 0 235.6 235.6;" xml:space="preserve">
<style type="text/css">
	.st0{fill:#FFDC0B;}
</style>
<path class="st0" d="M231.2,61.3l-10.9-2.6c-14.5-1.9-16-9.5-16-9.5c-2.6-11.6-12.8-20.3-25.4-20.3c-17.1,0-47.8,15.3-40,70.5
	c0,0,2.5,11.4-2.1,9.8c-7.4-1.4-15.3-2.1-23.5-1.9c-12.2,0.3-23.7,2.5-33.9,6.1c-17.1,6-47.4,16.7-72.2,6.1
	c-2.2-0.9-4.6-0.3-6.1,1.6c-1.5,1.9-1.6,4.6-0.4,6.7c11.1,19.3,30.8,45.2,56,62.3c14.7,10,35.5,17.2,59.1,16.6
	c36.6-0.9,65.4-19,73.5-41.2c4.9-13.3,9.8-35.4-10.4-62.8c-4.7-6.3-2.8-15.4,13.5-24.4c5.1-2.8,12.4-6.9,38.7-9.5
	C234.9,68.5,239,64.2,231.2,61.3z"/>
</svg>
