<svg id="Calque_1" data-name="Calque 1" xmlns="http://www.w3.org/2000/svg" viewBox="0 0 66 58.89"><path d="M17.27,0A17.25,17.25,0,0,0,.05,17.21c0,3-.63,8.59,3.2,15.67s11.93,15.71,29,25.8a1.48,1.48,0,0,0,1.52,0c17.06-10.09,25.17-18.71,29-25.8S66,20.19,66,17.21a17.21,17.21,0,0,0-32.95-7A17.23,17.23,0,0,0,17.27,0Zm0,3A14.2,14.2,0,0,1,31.5,17.22a1.5,1.5,0,0,0,3,0,14.23,14.23,0,0,1,28.45,0h0c0,3.34.62,7.81-2.84,14.23S49.17,45.91,33,55.6C16.83,45.91,9.29,37.76,5.89,31.46S3,20.57,3.05,17.23h0A14.2,14.2,0,0,1,17.27,3Z"/></svg>