<?xml version="1.0" encoding="utf-8"?>
<!-- Generator: Adobe Illustrator 24.3.0, SVG Export Plug-In . SVG Version: 6.00 Build 0)  -->
<svg version="1.1" id="Calque_1" xmlns="http://www.w3.org/2000/svg" xmlns:xlink="http://www.w3.org/1999/xlink" x="0px" y="0px"
	 viewBox="0 0 66 58.9" style="enable-background:new 0 0 66 58.9;" xml:space="preserve">
<style type="text/css">
	.st0{fill:#FC0000;}
</style>
<g id="XMLID_1_">
	<g>
		<path class="st0" d="M63,17.2c0,0.9,0,1.8,0,2.9c0,2.9-0.3,6.6-2.9,11.3C56.7,37.9,49.2,45.9,33,55.6C16.8,45.9,9.3,37.8,5.9,31.5
			S3,20.6,3,17.2c0,0,0,0,0,0C3,9.4,9.4,3,17.2,3c0,0,0,0,0.1,0c7.8,0,14.2,6.3,14.2,14.2c0,0,0,0,0,0c0,0.8,0.7,1.5,1.5,1.5
			s1.5-0.7,1.5-1.5c0.2-7.9,6.8-14.1,14.6-13.8C56.7,3.6,62.8,9.7,63,17.2z"/>
		<path class="st0" d="M31.5,17.2C31.5,9.3,25.1,3,17.3,3c0,0,0,0-0.1,0C9.4,3,3,9.4,3,17.2c0,0,0,0,0,0c0,3.3-0.6,7.9,2.8,14.2
			S16.8,45.9,33,55.6c16.2-9.7,23.7-17.7,27.1-24.1C62.7,26.7,63,23,63,20.1c0-1.1,0-2,0-2.9C62.8,9.7,56.7,3.6,49.1,3.4
			c-7.8-0.2-14.4,6-14.6,13.8c0,0.8-0.7,1.5-1.5,1.5S31.5,18,31.5,17.2C31.5,17.2,31.5,17.2,31.5,17.2z M17.3,0
			c6.8,0,13,4,15.8,10.2C35.8,4,42-0.1,48.8,0C58.3,0,66,7.7,66,17.2c0,3,0.6,8.6-3.2,15.7s-11.9,15.7-29,25.8c-0.5,0.3-1,0.3-1.5,0
			C15.2,48.6,7.1,40,3.3,32.9S0.1,20.2,0.1,17.2C0.1,7.7,7.8,0,17.3,0z"/>
	</g>
	<g>
	</g>
</g>
</svg>
